# xmcd
#
# Track frame offsets: 
#        150
#        13982
#        27265
#        40320
#        60617
#        75812
#        88455
#        99790
#        113370
#        127917
#        143655
#        159400
#        175140
#        192935
#
# Disc length: 2707 seconds
#
# Revision: 1
# Processed by: cddbd v1.5.2PL0 Copyright (c) Steve Scherf et al.
# Submitted via: ExactAudioCopy v0.99pb3
#
DISCID=a30a910e
DTITLE=Gilberto e Gilmar - Bis Sertanejo CD 02
DYEAR=2000
DGENRE=Sertanejo
TTITLE0=Capa de Revista
TTITLE1=Fuscao Preto
TTITLE2=O Abajur
TTITLE3=O Mais Importante eh o Verdadeiro Amor
TTITLE4=O Trem das 7
TTITLE5=Casal Liberal
TTITLE6=Porposta
TTITLE7=Amor, Amor, Amor
TTITLE8=Nem Um Adeus, Nada
TTITLE9=Outro Dia Nasceu
TTITLE10=Aguas Futuras
TTITLE11=Alma Prisioneira
TTITLE12=Sem Voce
TTITLE13=Onde Esta Voce
EXTD=
EXTT0=
EXTT1=
EXTT2=
EXTT3=
EXTT4=
EXTT5=
EXTT6=
EXTT7=
EXTT8=
EXTT9=
EXTT10=
EXTT11=
EXTT12=
EXTT13=
PLAYORDER=
